<?xml version="1.0" encoding="UTF-8"?>
<svg id="Layer_1" data-name="Layer 1" xmlns="http://www.w3.org/2000/svg" viewBox="0 0 218.0061 66.54534">
  <defs>
    <style>
      .cls-1 {
        font-size: 53.79835px;
      }

      .cls-1, .cls-2 {
        fill: #626843;
        font-family: PlayfairDisplay-Regular, 'Playfair Display';
      }

      .cls-3 {
        letter-spacing: -.008em;
      }

      .cls-4 {
        letter-spacing: -.00799em;
      }

      .cls-5 {
        letter-spacing: .00001em;
      }

      .cls-6 {
        fill: #a97c50;
      }

      .cls-2 {
        font-size: 13.55989px;
      }
    </style>
  </defs>
  <g>
    <path class="cls-6" d="M37.0411,1.38544c.5133.67463.91881,1.01591.75376,1.95687-.11148.63557-.51363.90645-.80591,1.40145-.83184,1.40874-1.08643,3.09139-1.32985,4.68934l-.40285.05957-.16869-.4453c-.38801-.05389-.40075.40274-.37928.68514l.36306.01651.09384.43994c.32787.05188.19568-.42266.45581-.38002l-.01023.9405c-.06401.19569-.90838.19268-.96857.00024-.02715-.08682-.0758-.6085-.08579-.75156-.11487-1.64501.03523-3.33644-.7481-4.88497-.20474-.40474-.68102-.90456-.81468-1.31675-.22032-.67949-.1514-1.83549.38824-2.35524.11734-.11301.27237-.13117.37141-.23757.25199-.27071.28647-.7688.74772-1.0031.76727-.38974,1.62642-.20912,2.09801.52339.18833.29253.2219.37213.44212.66156Z"/>
    <path class="cls-6" d="M49.35219,3.15621c.68209.56214.40155.69003.52223,1.4198.05117.30944.28037.55882.35507.86272.13369.54385.02609,1.07419-.25661,1.5557-.42732.72784-1.16242.80458-1.7516,1.2933-.83917.69607-2.64541,3.19273-3.02566,4.20581-.05619.1497-.07078.27759-.05936.43568-.25611.00251-.59377.05357-.74823-.20247-.13712-.4023.57902-1.70798.71435-2.22936.33219-1.27978.53038-2.68091.49418-4.00334-.00694-.25338-.11421-.4847-.08564-.76247.01638-.15928.21934-.07824.15899-.29984l-.152.03833c-.08386-.8333.55849-1.45909,1.22447-1.85839.14292-.08569.32976-.10049.49034-.19476.21199-.12445.42446-.41154.58771-.478.26515-.10794,1.12623-.09657,1.37595.03455.08906.04676.10413.14016.15581.18275Z"/>
    <path class="cls-6" d="M16.9272,16.47531c.30117.35837.67813.66073.93847,1.05899-.58588,1.35259-1.25261-.08812-1.80594-.61016-.75984-.71688-2.29272-1.66849-3.25519-2.07339-1.10102-.46318-2.69354-.44959-3.12094-1.90315-.08733-.29701-.23152-1.39042-.25233-1.72842-.04775-.77559.64313-1.48183,1.41116-1.48767.27246-.00207.58161.18899.84475.22292.31485.0406.62115-.02797.94959.03999.15854.03281.97831.40119,1.10141.49716.51313.40003.50975,1.32364.6846,1.90356.44858,1.48776,1.51681,2.90497,2.50441,4.08015Z"/>
    <path class="cls-6" d="M20.80111,6.89278c-.1129-.12455-.42909-.67658-.48447-.84821-.2868-.88886-.0417-1.20523.19684-2.01892.10894-.37162.12068-1.0112.49492-1.2559.34641-.22651,1.23807-.24904,1.61415-.09681.2264.09164.38871.42721.59645.54538.22618.12865.54841.13712.80724.25848,1.33586.62632.82612,1.88422.78259,3.01726-.03184.82874-.01589,2.15477.08554,2.96563.11026.88147.74157,1.97545.95409,2.85995.07605.24161-.38832.42727-.56176.44556-.40626.04283-.42614-.74516-.57135-1.07119-.32989-.74064-1.71928-3.07672-2.27117-3.59026-.4339-.40375-1.27261-.80227-1.64308-1.21098Z"/>
    <path class="cls-6" d="M52.93473,17.30292c1.07498-1.20435,2.58376-2.7137,3.0892-4.25746.32409-.98985.1918-1.57325,1.30105-2.12447.55153-.27407.72451-.12869,1.24265-.20367.26423-.03824.50768-.23084.84237-.22946.68787.00285,1.425.69474,1.40246,1.40207-.01096.34391-.23163.65208-.28105.94342-.04305.25381.01372.50594-.01859.74264-.1154.84544-.4567,1.29512-1.2147,1.67795-2.5282.13649-4.57159,1.77286-6.45032,3.30054-.17027.04859-.55067-.35178-.55431-.48468-.0072-.26307.46313-.56735.64123-.76689Z"/>
    <path class="cls-6" d="M6.94983,21.58221c.98905,1.24046,3.06119,2.6107,4.48763,3.31359.5509.27146,1.3114.14696.80264,1.03834-.15737.097-1.57402-.48203-1.87575-.57421-1.42138-.4342-2.89479-.64398-4.39145-.55401-.96732.05815-1.33684.39643-2.2848-.30587-.56947-.4219-.54099-.74242-.84075-1.2162-.07981-.12615-.32164-.23861-.44675-.46405-.29575-.53291-.36242-1.00049-.00196-1.51198.26471-.37562.61188-.57644,1.07267-.609.18065-.01277.32089.0899.49857.05559.20737-.04004.60489-.32735.78694-.36177.46384-.08772,1.25529.03752,1.63753.33544.29415.22927.36387.61381.55547.85413Z"/>
    <path class="cls-6" d="M67.11285,21.93493c.08068.08745.28902.5885.31011.71887.13081.80829-.46879,1.13654-.80742,1.66839-.12753.2003-.15746.44046-.28205.63142-.84798,1.2997-2.01454.67672-3.2707.61303-1.22786-.06226-2.88176.17196-4.07341.49246-.34958.09402-1.0469.46699-1.3458.48436-.2054.01193-.30328-.46089-.32952-.62191.23066-.44119,1.02229-.34307,1.20505-.44776.02386-.01367.15194-.25025.35561-.36687,1.262-.7226,2.49582-1.15202,3.59112-2.23205.28936-.28532.49384-.74065.78655-1.00235.4919-.43979,1.29033-.66942,1.93849-.56545.23023.03693.33121.21681.4953.266.40084.12017,1.05323-.04287,1.42668.36188Z"/>
    <path class="cls-6" d="M4.58668,33.00197c.3944.2923,2.05675.64912,2.62695.76115,1.10623.21735,2.30845.30326,3.4358.33258.02488.3014.15287.5687.01215.86517l-3.61494.1296c-.67449.14376-1.38732.29924-2.02529.56288-1.01979.42141-1.51049,1.19661-2.80457.82296-.08769-.02532-1.31716-.80175-1.45444-.9051-.57375-.43195-1.07037-1.38915-.53011-2.04269.19384-.23449.72055-.34725.92597-.50001.22365-.16632.32191-.53379.76448-.77831,1.03804-.57352,1.70082-.02553,2.52781.54952.06662.04633.0883.16677.13621.20228Z"/>
    <path class="cls-6" d="M12.69874,43.67349l-2.72368,1.19643c-.77508.46916-1.68186.98044-2.29222,1.66615-.47296.53135-.66643,1.28051-1.51649,1.45231-.8994.18177-1.08982-.08278-1.81088-.32935-.13025-.04454-.31461-.00385-.47964-.05322-.91177-.27274-1.30041-1.33575-.74627-2.12102.12552-.17788.30869-.23937.37181-.33319.22469-.33396.23564-.75955.63225-1.13707.65309-.62164,1.27661-.2488,1.99817-.18713,2.13443.18242,4.24982-.117,6.23928-.90499.19883.00832.39242.64752.32767.75108Z"/>
    <path class="cls-6" d="M65.48779,37.33734c-.18193-.10008-.53748-.50422-.76194-.64518-.8478-.5324-2.58192-1.04183-3.57474-1.14485-.74958-.07778-1.62431-.02019-2.38884-.08513l.06792-.79337c1.81376-.1271,3.45762-.07559,5.20377-.67249,1.40448-.48011,2.13652-1.39904,3.73158-.57219.15136.07847.18119.25725.32197.36313.64356.48403,1.53212.9436.89333,1.95872-.2926.46499-.91431.57083-1.23196.82342-.10316.08203-.20301.29255-.34417.41706-.53829.4748-1.23621.72534-1.91692.35089Z"/>
    <path class="cls-6" d="M10.67372,53.98014c.45927-.45603,1.37654-.48114,1.97534-.65091,1.2036-.34124,2.81709-1.28305,3.82711-2.03433.36714-.27309.78636-1.04904,1.3256-.71577.19901.123.33228.31479.16302.52977l-1.11289,1.01847c-.73278,1.09965-1.68694,2.06545-2.12416,3.35666-.23216.68561-.10642,1.12734-.77624,1.65968-.63723.50644-.84148.29419-1.50525.39781-.29012.04529-.62124.2498-.97345.21048-.30325-.03385-1.00036-.4861-1.15921-.75051-.38202-.63588-.04654-.83687.0303-1.33393.05084-.32886-.0399-.70469.0225-1.04328.02014-.10928.24229-.57958.30732-.64415Z"/>
    <path class="cls-6" d="M65.43898,47.999c-.22027.2501-.94665.13659-1.28931.27182-.21005.08289-.3282.308-.63435.35531-.43148.06669-1.00051.01569-1.38111-.20763-.69908-.41019-.76069-1.29808-1.34304-1.89215-.82462-.84122-1.74315-1.25874-2.74228-1.78703-.20889-.11045-1.26759-.63164-1.34241-.71286-.1807-.19613.06791-.72256.25207-.71257.12843.00697.54387.25209.75506.31438,1.42132.41919,2.86072.93,4.36378.89496,1.1024-.0257,2.02012-.56534,3.00506.33803.41792.38331.27711.46435.39759.8965.06547.23485.35754.38404.42009.72161.03649.19696.04524.53467.00188.72742-.01007.04476-.42912.75369-.46304.7922Z"/>
    <path class="cls-6" d="M35.06961,57.25117c.17871.15429.07201,1.64219.09625,1.99771.05487.80452.27226,2.08456.62151,2.804.48697,1.00313,1.50956,1.59235.78027,2.8631-.21193.36928-.50607.49037-.75879.76366-.30859.3337-.31814.74727-.91759.83322-.73944.10602-1.20114-.03524-1.66305-.60675-.19126-.23664-.38747-.48109-.57517-.71891-.47967-.60774-.66074-1.13702-.29109-1.88874.13724-.27908.40533-.43037.52167-.62018.73563-1.20031,1.02164-2.32868,1.20557-3.74238.04733-.36376.03504-1.38001.14188-1.60899.11907-.25519.69402-.2005.83853-.07574Z"/>
    <path class="cls-6" d="M53.3105,52.17933c.67501.54014,2.0867,1.53177,2.91961,1.68655.34684.06445.65338-.0261,1.02524.1166.36241.13907.86447.59642,1.02999.9492.17732.37792.24763,1.28749.25509,1.73021.0145.85954-.66159,1.38162-1.48846,1.3318-.43416-.02616-1.20747-.1184-1.64261-.18603-1.49267-.23198-1.23879-1.30648-1.61523-2.41926-.38354-1.13375-1.16081-2.40236-1.92672-3.32573-.33518-.40409-1.2335-.81555-.56169-1.25857.51769-.34138.57459.17011.90714.45638.34259.29491.73981.63252,1.09764.91886Z"/>
    <path class="cls-6" d="M25.24661,55.49202c.1934-.05437.69136.18103.70334.40479-.25896.67134-.58628,1.33315-.79249,2.02408-.36176,1.21211-.26605,2.01998-.26625,3.22912-.00014.8019.18613,1.68678-.50851,2.23816-.21149.16787-1.57352.82209-1.81732.84669-.69373.06999-1.353-.01537-1.63849-.71904-.14366-.35408-.08988-.66594-.16625-.97558-.17372-.70431-.4969-.70071-.11242-1.59247.30602-.70979.72383-.64729,1.26653-1.01714,1.17242-.79901,2.34767-2.32292,2.93671-3.60982.08823-.19275.08594-.74185.39517-.82877Z"/>
    <path class="cls-6" d="M46.53354,59.56601c.15243.14439.38332.34753.54654.48109.80576.65932,1.54246.74097,1.31174,2.0775-.04056.23498-.19956.42998-.26569.64781-.22261.73325-.17826,1.36452-1.13388,1.45357-.88316.08229-1.6588-.40072-2.36911-.88456-.1974-.13446-.49186-.41628-.58382-.63383-.24671-.58365.07132-.8018.17647-1.33347.37467-1.89461-.28164-3.42029-.7662-5.15623-.17073-.61164.03784-.8343.65887-.65864.27676.63862.6855,1.21341.96955,1.84649.07758.1729.04366.35441.12881.55629.15741.3732,1.00396,1.29827,1.32672,1.60399Z"/>
    <path class="cls-6" d="M42.9407,2.51266c.29495-.46322,1.0695.8155,1.19319,1.02897.27382.47258.86594,1.68892.92868,2.19236.06661.53443-.02953,1.92633-.07892,2.51325-.0963,1.14444-.51632,2.22915-.99963,3.26323-.09079.19426-.34277.81398-.5598.81262-.0817-.00578-.14914-.05166-.19854-.11354-.12322-.15436.2881-1.13998.35133-1.41058.42238-1.8077.44853-4.0774.02886-5.89198-.09358-.40461-.81069-2.16581-.66517-2.39433Z"/>
    <path class="cls-6" d="M49.0476,8.39161c.32118-.25788.77076-.63093,1.18886-.48684l-.15135-.1507c1.06659-.39009,2.02051-1.01463,3.22376-.82731.16644.05464.16025.30601.0885.44741-.0572.11272-1.95112.83218-2.30022,1.04901-.55767.34638-1.2612.98348-1.77324,1.4239-.63135.54303-1.33176,1.1165-1.86639,1.78749-.4461.55987-.791,1.19249-1.1771,1.79258l-.30622-.00195c-.05513-.04057-.12414-.09494-.13709-.16311-.02492-.13128.9767-2.15807,1.1416-2.4108.45436-.69638,1.43658-1.95198,2.06889-2.45966Z"/>
    <path class="cls-6" d="M15.44862,7.44841l.00582.2222.14801-.02857c.14586.11212.05775.9652.07558,1.2142.1756,2.45184,1.10586,5.04969,2.51018,7.00539.12051.16782.90307.79496.32853.94207-.24609.06301-.40328-.34142-.55225-.49024-.88104-.88015-1.4902-1.53316-2.14801-2.6477-.8275-1.40203-1.25347-2.76974-1.12784-4.42717.041-.54087.17859-1.59432.75997-1.79017Z"/>
    <path class="cls-6" d="M27.3774,2.20858c.08811-.0256.1749-.03089.25619.02035.24279.17524-.22889.96807-.31231,1.22063-.70586,2.13697-1.03212,4.27918-.65994,6.52684.07716.46598.51437,1.54828.50916,1.85446-.00113.06664-.01672.11063-.07115.15084-.33494.22763-.59181-.42917-.70175-.67585-.77913-1.74825-1.2551-4.12051-.8022-6.0044.15415-.6412,1.15001-2.90926,1.78199-3.09287Z"/>
    <path class="cls-6" d="M51.89833,17.48186l-.33414-.05615c-.1875-.38498.17909-.51437.3005-.69577,1.46586-2.19019,2.55389-3.81651,2.93193-6.58647.05516-.40415.00872-1.60446.23965-1.81549.51904-.47432.73576,1.11822.76057,1.43948.18631,2.41247-1.08333,4.65025-2.62815,6.36033-.41234.45646-.94146.83674-1.27036,1.35408Z"/>
    <path class="cls-6" d="M22.10345,8.86316c.76921.84154,1.4294,1.82085,1.88438,2.87329.0872.20171.56259,1.30675.44374,1.42149-.11045-.012-.27311.03562-.36524-.01625-.08199-.04616-.52387-.97879-.6381-1.15013-.74121-1.11187-2.74684-3.20916-3.89241-3.87209-.79706-.46125-1.77098-.82178-2.58629-1.27569-.49357-.8013.89881-.43542,1.30056-.33123,1.39025.36057,2.89292,1.29986,3.85336,2.35061Z"/>
    <path class="cls-6" d="M32.75541,4.68328c1.07035,1.8323,1.1436,3.4506,1.12956,5.5438-.00152.22727.20215.47933-.13985.63296-.17993.05006-.37802-.29616-.3933-.42012-.0133-.10786.13842-.16782.12582-.27426-.0071-.05997-.21225-.44974-.25668-.65906-.5799-2.73224-1.18307-4.55502-3.07712-6.66656-.13163-.14675-1.15261-.83991-.55715-1.01135.4346-.12513,1.45677.85517,1.8857,1.05301.50476.54598.90882,1.16103,1.28301,1.8016Z"/>
    <path class="cls-6" d="M41.09521,1.97519c.19021.52504-.19979.58991-.45219.86569-1.74565,1.90737-3.24087,4.29876-3.56548,6.93942-.03292.26777.12843,1.47031-.47154,1.06038-.10943-.07477-.09037-1.65035-.07428-1.91068.05338-.86335.32676-2.08911.57305-2.92859.27207-.92736,1.53618-2.65269,2.31938-3.23764.15635-.11677,1.03302-.68662,1.16599-.7366.16682-.0627.32924-.08735.50508-.05197Z"/>
    <path class="cls-6" d="M59.66058,15.76857c1.02892-.06961,2.15315.10016,3.1018.50668l-.03695.42706c-1.24181.03328-2.36761.00508-3.58486.29715-1.22945.29499-3.58773,1.18162-4.58863,1.88178-.28449.19901-.53469.43003-.79056.66272l-.32266-.19178c.00307-.28022.50073-.39131.56638-.48092.07186-.09809.00061-.32609.38053-.61302,1.51107-1.14122,3.33859-2.35867,5.27496-2.48968Z"/>
    <path class="cls-6" d="M11.78808,26.71408c.03564.14897.01953.37423-.17947.37489-2.5316-.91913-5.36597-.87035-7.92344-.07956-.5445.16836-1.04093.54528-1.63413.45955-.00181-.16598-.01425-.37476.09846-.51162.07345-.08919,1.13275-.7662,1.30794-.86076,1.39928-.75533,2.46365-.85188,4.03602-.68227,1.48901.16063,2.95267.65982,4.29464,1.29977Z"/>
    <path class="cls-6" d="M16.73726,18.78561c-.20586.30908-.83024-.46531-.98899-.56042-2.20431-1.32051-4.35115-2.28954-6.96987-2.54545-.24376-.02382-2.35722.0667-1.24675-.50508,1.01424-.52223,2.76478-.40013,3.84009-.10908,2.11868.57346,3.19677,1.60188,4.80021,2.96429.16847.14314.80919.38956.5653.75574Z"/>
    <path class="cls-6" d="M6.37868,17.05295c.3081.80011.76927,1.65113,1.24286,2.37184.98765,1.50302,2.15447,2.64542,3.6476,3.66017.47924.3257,1.05939.6449,1.58705.88845l-.07971.36739c-.20636.03953-.39249-.06079-.57604-.13183-2.4705-.95611-5.15159-2.73088-5.98557-5.35669-.13821-.43516-.6709-2.02158.16382-1.79932Z"/>
    <path class="cls-6" d="M62.46585,21.88523c-1.02138,1.12465-2.56166,2.16504-3.96857,2.76829-.20066.08604-1.40421.54006-1.48513.45573.0143-.10575-.03705-.28848.01212-.3686.07437-.12117,1.19999-.62948,1.43347-.46925l-.11505-.30451c.06719-.08969.21505-.09373.28708-.1537,1.65311-1.37638,3.01832-2.29141,4.15251-4.23776.12851-.22053.60944-1.35457.67234-1.40011.12165-.08808.50146-.12903.55392.05453.01424.04982-.14832.89408-.1814,1.02025-.21383.81554-.79294,2.0093-1.36129,2.63512Z"/>
    <path class="cls-6" d="M2.48093,41.10131c.22928-.0729.88685.34201,1.14802.4332,1.63669.57148,3.20559.64484,4.91916.69718l3.21542-.52486.18648.18791c.0006.20945-.49044.39451-.67206.47198-2.72742,1.16332-5.48222,1.30099-8.06167-.26729-.16312-.09918-1.31088-.81513-.73536-.99811Z"/>
    <path class="cls-6" d="M65.4377,26.73313c.02808.01248.03767.10498.07857.125.41344.20231,1.47633.73157,1.76642,1.03515.11576.12115.17604.24105.15767.41265-.23369-.00814-.47213.02601-.70502-.01754-.40247-.07526-.99898-.47282-1.39354-.58564-1.20238-.34382-3.16144-.47707-4.40891-.38525-.89677.066-1.92576.41372-2.75273.45181-.39669.01827-.32115-.39419.08776-.45311.19657-.02832.06423.08638.03747.15206l.33663.06881.12006-.29622-.22619-.03662c2.03852-.93416,4.78349-1.41246,6.90181-.47109Z"/>
    <path class="cls-6" d="M10.71849,35.70043c.02558.0414.02754.19358.01405.24561-.03793.1463-1.50112.24566-1.77147.29764-1.3452.25866-3.23292.83656-4.33892,1.65371-.47623.35185-.71224.52315-1.22547.85089-.27591.17619-.988.96697-1.2017.9414-.44256-.0945.03121-.96198.18637-1.15734,1.48337-1.86771,3.31224-2.62905,5.64601-2.84175.3853-.03511,2.57292-.18145,2.69113.00985Z"/>
    <path class="cls-6" d="M66.44284,41.8639c.09591.19078.04554.25615-.06735.41007-.27298.3722-1.67925,1.25652-2.12924,1.37382-1.49224.389-3.89907.22001-5.35234-.28634-.53743-.18725-1.11828-.5132-1.66007-.71536l.12675-.41181c2.33923.8222,4.96984.76422,7.35557.1326.19586-.05185.42776-.09594.60876-.15246.33453-.10446.69578-.47358,1.11793-.35052Z"/>
    <path class="cls-6" d="M24.43098,55.10182c.0821.08035-.20171.7096-.26384.83917-1.11394,2.32292-3.43595,5.00356-6.24202,5.0268-.23805.00197-.84141-.12494-.57879-.42827.11367-.13129,1.19654-.54015,1.45537-.67703,1.70841-.90356,3.08664-1.92856,4.3091-3.41736.21941-.26721.78191-1.25651.99409-1.32763.10277-.03444.2199-.01526.3261-.01568Z"/>
    <path class="cls-6" d="M4.59141,32.08353c-.61743-.35341-1.71356-1.18818-2.15774-1.7617-.15574-.20108-.72376-1.11239-.75214-1.31085-.01964-.13729.08246-.32692.24245-.31274.16285.01444,1.44758,1.31665,1.73228,1.54285,1.42822,1.13475,3.38057,1.99299,5.16974,2.36639.57639.12029,1.15802.17705,1.71838.26059l.02618.26421c-.0617.18779-1.08965.1372-1.32879.12514-1.50654-.07594-3.33248-.41954-4.65035-1.17389Z"/>
    <path class="cls-6" d="M11.36616,45.6149c-.0449.03066-.07863.13551-.15167.18649-1.25805.87815-2.15798,1.74813-3.02366,3.00161-.47436.68687-.78156,1.46428-1.16208,2.18166l-.25958-.03013c-.35197-.21189.08816-1.70902.22604-2.06117.60947-1.5565,2.02184-2.93107,3.51425-3.64126.70998-.33786,1.54995-.50467,2.25699-.87119,1.07915.19162-.46108.6774-.8098.8721-.20063.11202-.40116.23259-.59051.3619Z"/>
    <path class="cls-6" d="M16.74248,49.54429l-.02173.50983c-.47018.31718-.90569.78934-1.35455,1.12041-1.57733,1.1634-3.51175,2.00889-5.51132,1.87061-.33007-.02283-1.92908-.26335-2.01071-.58388-.12889-.50611,1.23364-.30309,1.55613-.32548,2.02342-.14049,4.03441-.65879,5.812-1.64801.24343-.13547,1.40029-1.05629,1.53018-.94349Z"/>
    <path class="cls-6" d="M26.58969,64.13329c-1.75319-1.95585-1.47697-5.27292-.33227-7.47223.148-.28435.41214-.80838.76225-.45391-.94962,2.67343-.75747,5.59578.45671,8.14466-.02473.16494-.15409.27966-.32499.25477-.10011-.01458-.47606-.37775-.5617-.47328Z"/>
    <path class="cls-6" d="M15.89581,59.65846c-.45916.28537-.76644-.87162-.82144-1.17566-.49933-2.76019,1.43959-5.20333,3.30094-6.96308l.29949-.0662c.38264.32013-.27022.66913-.47454.95649-1.14227,1.60652-2.03599,3.78995-2.21726,5.7756-.02341.25647.06272,1.37967-.08718,1.47284Z"/>
    <path class="cls-6" d="M41.84073,64.5959c-.12757.10689-.28026.03837-.42716.01415-.08796-.41324.23972-.73264.37468-1.09613.81466-2.19428.97357-3.67852.596-6.00261-.06728-.41417-.18143-.81865-.28508-1.22378.35195-.36998.56282.1517.69123.43702,1.06368,2.36344,1.28388,5.05188-.36247,7.20069-.08912.11631-.50193.59921-.5872.67066Z"/>
    <path class="cls-6" d="M65.88806,38.53694c.37467.36631,1.26764,1.42495,1.08533,1.97488-.06636.20017-.31121.12134-.42389.02641-.25907-.21828-.7429-.79391-1.01314-1.07933-.34777-.3673-.58568-.62177-1.08599-.8927-1.45146-.78598-3.38505-1.57024-5.05014-1.80089-.16979-.02352-.52016.04035-.60458-.08024l-.0376-.26424c.03715-.16996.99545-.12766,1.18365-.12092,2.19664.07865,4.37718.70289,5.94635,2.23703Z"/>
    <path class="cls-6" d="M52.1592,50.01994c.31343-.29986,1.01483.52055,1.2797.69958,1.40754.95137,3.89526,1.79004,5.59112,1.94501.39174.0358.81031-.03123,1.2072.01076,1.32192.13985.0361.76026-.59859.82818-2.13616.22857-4.11951-.46325-5.81782-1.71953-.63133-.46701-1.1244-1.10763-1.73455-1.59149.01449-.05564.03308-.13437.07293-.1725Z"/>
    <path class="cls-6" d="M61.37605,48.60678l.19108.14709c.31037.56161.53143,1.63667.54792,2.27892.00827.32203-.14389.63966-.4895.4062-.26358-.17805-.22575-.62075-.33475-.88301-.44448-1.06948-1.06533-1.92294-1.80396-2.76339-.95635-1.08819-2.07876-2.11377-3.43321-2.65979l.05313-.30096c.88353.12874,1.73427.57061,2.49717,1.02713,1.09352.65437,2.2332,1.57597,2.7721,2.74782Z"/>
    <path class="cls-6" d="M67.65984,29.91422c.11862.18805-.2459.74799-.37125.92134-.53974.74642-2.00051,2.03328-2.84167,2.35576-.66287.25413-1.80363.5101-2.5258.59522-.9721.11458-1.95424.02907-2.92694.12126-.17351.03392-.1869-.25671-.15921-.37608.04853-.20925,1.37029-.10257,1.6392-.12642.94873-.08414,2.40578-.65247,3.28768-1.0513.22565-.10205,1.55766-.75955,1.64811-.84764.33614-.32737.45071-.37134.80745-.65518.22732-.18087,1.03729-.98375,1.1965-1.00318.04988-.00609.23125.04293.24594.06621Z"/>
    <path class="cls-6" d="M38.39295,64.35672c-.18076-.12405-.44458-.29413-.60016-.42699-.89046-.7604-1.74195-2.55067-1.92238-3.7107-.14745-.94798-.17782-2.03577-.09696-2.98652.16267.00816.46142-.06346.52259.12496.01873.7811.15126,1.56249.34906,2.31524.34759,1.32276,1.31408,3.15027,2.24771,4.14658.30762.32827.99105.63777.882,1.1065-.21644.3077-1.1646-.41996-1.38187-.56906Z"/>
    <path class="cls-6" d="M50.35248,51.77282c.94246.70484,1.73941,1.73064,2.33341,2.74462.93821,1.60155,1.02565,3.2124.5621,5.00334-.09505.36724-.29811.66522-.64041.32738-.04499-.47553.02171-.95956-.01164-1.43464-.11607-1.6532-.57303-3.40156-1.41405-4.82799-.16547-.28066-1.03737-1.41011-1.06838-1.52542-.01528-.05682-.04766-.1029.00301-.15715l.23597-.13013Z"/>
    <path class="cls-6" d="M45.13609,55.1014c.2589.85799,1.02735,1.7654,1.63616,2.43703.83362.91963,2.02283,1.76194,3.10902,2.3718.26065.14634,1.60384.68355,1.64072.79724l-.02364.26103c-1.15409.18876-2.53078-.38691-3.49374-1.00855-1.19659-.77245-2.13796-1.90236-2.71666-3.2209-.1084-.24699-.50145-1.24378-.53209-1.45145-.02641-.17904.26681-.17692.38023-.18619Z"/>
    <path class="cls-6" d="M33.33796,57.23256c.03917.85471-.04108,1.69567-.16336,2.53956-.2025,1.39753-.6859,2.63568-1.58617,3.74294-.27734.34111-1.85029,1.4686-2.2485,1.48748-1.02571.04864.4341-1.03404.61126-1.2222,1.04615-1.11112,1.91815-2.45734,2.41698-3.90119.29505-.85402.45684-1.74708.59706-2.63783l.37273-.00875Z"/>
  </g>
  <text class="cls-1" transform="translate(73.32319 49.76083) scale(1.40658 1)"><tspan x="0" y="0">M</tspan><tspan class="cls-3" x="46.85774" y="0">D</tspan><tspan class="cls-5" x="85.32301" y="0">J</tspan></text>
  <text class="cls-2" transform="translate(14.99409 36.29012) scale(1.40658 1)"><tspan x="0" y="0">M</tspan><tspan class="cls-4" x="11.81042" y="0">D</tspan><tspan x="21.50571" y="0">J</tspan></text>
</svg>